<?xml version="1.0" encoding="UTF-8" standalone="no"?>
<!DOCTYPE svg PUBLIC "-//W3C//DTD SVG 1.1//EN" "http://www.w3.org/Graphics/SVG/1.1/DTD/svg11.dtd">
<svg version="1.1" xmlns="http://www.w3.org/2000/svg" xmlns:xlink="http://www.w3.org/1999/xlink" preserveAspectRatio="xMidYMid meet" viewBox="0 0 640 640" width="640" height="640"><defs><path d="M272.98 159.27C273.84 155.99 272.02 152.6 268.82 151.51C268.19 151.29 263.18 149.58 262.55 149.36C261.19 148.9 260.02 147.99 259.24 146.78C257.09 143.5 239.9 117.22 237.75 113.93C235.31 110.2 237.29 105.17 241.62 104.11C241.62 104.11 241.62 104.11 241.62 104.11C245.8 103.08 247.83 98.35 245.71 94.62C245.42 94.12 243.12 90.08 242.83 89.57C241.77 87.72 241.7 85.46 242.63 83.54C244.77 79.14 261.88 44.02 264.02 39.63C265.49 36.62 264.41 32.99 261.54 31.26C260.15 30.42 249.03 23.73 247.65 22.89C246.54 22.23 245.26 21.91 243.97 21.97C239.65 22.2 205.14 24.03 200.83 24.26C199.82 24.31 198.81 24.13 197.89 23.72C192.6 21.4 150.31 2.86 145.03 0.55C143.11 -0.3 140.9 -0.16 139.11 0.92C137.19 2.07 121.87 11.24 119.95 12.39C116.19 14.64 115.71 19.91 119.01 22.8C120.13 23.79 129.13 31.67 130.26 32.66C131.62 33.85 132.42 35.56 132.46 37.36C132.55 40.98 133.27 69.9 133.36 73.52C133.4 75.09 134 76.58 135.06 77.74C137.82 80.74 159.89 104.77 162.65 107.78C164.53 109.83 164.89 112.86 163.54 115.29C161.22 119.48 142.64 152.98 140.32 157.16C138.27 160.85 140.82 165.48 137.74 168.86C135.67 171.14 125.3 182.53 106.65 203.03L202.01 217.32L294.79 203.03L264.85 190.25C269.73 171.66 272.44 161.33 272.98 159.27Z" id="lvcLH15tG"></path><path d="M123.95 419.9L151.65 494.77C181.5 575.44 198.08 620.26 201.4 629.23C204.58 637.83 214.17 642.18 222.74 638.91C226.4 637.51 229.47 634.81 231.35 631.38C232.54 629.19 233.49 626.92 235.06 624.95C237.35 622.09 239.71 619.28 242.03 616.44C243.59 614.57 256.08 599.59 257.65 597.72C259.48 595.51 260.71 592.87 261.22 590.05C262.04 585.42 268.61 548.46 269.43 543.84C269.91 541.14 269.71 538.36 268.85 535.76C268.53 534.79 265.96 527.03 265.64 526.06C264.52 522.69 264.52 519.06 265.63 515.69C266.48 513.12 273.3 492.52 274.15 489.95C275.37 486.26 277.85 483.13 281.15 481.09C281.68 480.76 285.92 478.15 286.45 477.82C288.49 476.56 290.78 475.76 293.17 475.48C293.35 475.46 294.82 475.28 295 475.26C299.54 474.73 303.66 472.33 306.36 468.64C308.84 465.26 311.15 461.66 313.84 458.45C318.54 452.84 325.65 452.52 330.63 447.54C331.88 446.28 341.89 436.27 343.14 435.02C344.66 433.49 345.88 431.68 346.7 429.69C346.97 429.03 348.33 425.77 350.77 419.9L232.43 405.61L123.95 419.9Z" id="a1cW7z0xUL"></path><path d="M201.39 629.23C204.58 637.83 214.17 642.18 222.74 638.91C226.4 637.51 229.47 634.81 231.34 631.38C232.54 629.19 233.49 626.92 235.06 624.95C237.35 622.09 239.71 619.28 242.03 616.44C243.59 614.57 256.08 599.59 257.64 597.72C259.48 595.52 260.71 592.87 261.21 590.05C262.03 585.43 268.61 548.46 269.43 543.84C269.91 541.14 269.71 538.36 268.85 535.76C268.53 534.79 265.95 527.03 265.63 526.06C264.52 522.69 264.52 519.06 265.63 515.7C266.48 513.12 273.3 492.52 274.15 489.95C275.37 486.26 277.85 483.13 281.15 481.09C281.68 480.76 285.92 478.15 286.45 477.82C288.49 476.56 290.78 475.76 293.17 475.48C293.35 475.46 294.82 475.29 295 475.26C299.54 474.73 303.66 472.33 306.36 468.64C308.84 465.27 311.15 461.66 313.84 458.45C318.54 452.84 325.65 452.52 330.62 447.54C331.88 446.28 341.89 436.27 343.14 435.02C344.66 433.49 345.87 431.68 346.7 429.69C346.97 429.04 348.33 425.77 350.77 419.9C305.49 419.9 280.34 419.9 275.31 419.9C241.17 454.05 198.9 480.05 151.65 494.77C161.59 521.66 196.42 615.78 201.39 629.23Z" id="a2m8x9FXfM"></path><path d="M585.73 188.47C584.66 186.89 582.86 185.96 580.95 186.01C577.51 186.1 549.99 186.82 546.55 186.91C544.72 186.96 543.04 187.89 542.03 189.41C541.72 189.87 539.25 193.57 538.94 194.03C538.51 194.68 537.95 195.23 537.3 195.64C536.53 196.14 532.68 198.6 525.76 203.03C508.39 214.14 498.75 220.31 496.82 221.55C495.36 222.48 494.42 224.03 494.26 225.75C494.15 226.92 493.28 236.24 493.17 237.4C492.9 240.28 490.48 242.49 487.59 242.49C485.31 242.49 467.13 242.49 464.86 242.49C463.57 242.49 462.32 242.04 461.32 241.23C458.54 238.97 436.33 220.87 433.55 218.61C430.71 216.29 426.45 217.28 424.92 220.61C423.68 223.28 413.8 244.7 412.56 247.38C411.29 250.13 408.06 251.38 405.26 250.18C401 248.36 366.88 233.8 362.61 231.98C356.49 305.14 324.29 370.9 275.31 419.89C280.34 419.89 305.49 419.89 350.77 419.89C351.84 417.32 352.43 415.89 352.55 415.6C353.04 414.42 353.91 413.45 355.03 412.84C358.75 410.79 388.49 394.45 392.21 392.41C393.78 391.54 394.85 389.97 395.07 388.18C395.25 386.74 396.67 375.26 396.85 373.82C397.03 372.33 397.81 370.97 399.01 370.06C400.79 368.7 415.02 357.81 416.8 356.45C418.09 355.47 419.73 355.08 421.31 355.4C422.56 355.65 432.56 357.64 433.81 357.89C437.9 358.7 441.41 354.94 440.32 350.91C438.62 344.66 425 294.64 423.3 288.38C422.55 285.66 423.95 282.81 426.56 281.73C429.46 280.52 452.68 270.9 455.58 269.7C457.29 268.99 459.24 269.17 460.79 270.18C462.44 271.26 475.64 279.89 477.29 280.96C478.03 281.45 478.87 281.75 479.75 281.84C481.59 282.05 496.35 283.67 498.19 283.87C502.39 284.33 504.59 289.09 502.23 292.59C501.11 294.24 492.17 307.46 491.05 309.12C488.46 312.95 491.35 318.09 495.97 317.86C495.97 317.86 495.97 317.86 495.97 317.86C497.81 317.77 499.58 318.59 500.7 320.06C502.02 321.79 512.61 335.62 513.93 337.35C516.93 341.26 523.16 339.68 523.93 334.82C524.32 332.37 527.42 312.84 527.81 310.4C528.3 307.27 531.29 305.17 534.4 305.77C535.25 305.93 542.05 307.23 542.9 307.39C546.01 307.99 549 305.89 549.5 302.77C550.01 299.55 554.1 273.86 554.61 270.65C555.3 266.34 560.21 263.58 561.64 259.52C563.14 255.27 561.16 247.94 566.64 246.04C569.79 244.95 595 236.19 598.16 235.09C600.01 234.45 601.4 232.88 601.8 230.95C602.06 229.75 604.1 220.14 604.35 218.94C604.67 217.44 604.36 215.89 603.5 214.62C602.98 213.85 600.35 209.99 595.62 203.03C589.69 194.29 586.39 189.44 585.73 188.47Z" id="a1lWzFhTS4"></path><path d="M123.95 419.9C140.57 464.82 149.8 489.77 151.65 494.77C198.9 480.05 241.17 454.05 275.31 419.9C255.13 419.9 204.67 419.9 123.95 419.9Z" id="b3IeMm17OJ"></path><path d="M94.96 216.49C93.76 217.81 91.9 218.3 90.2 217.76C88.24 217.13 72.57 212.11 70.62 211.48C68.25 210.73 65.71 212 64.91 214.36C64.05 216.86 57.21 236.92 56.36 239.43C55.72 241.28 56.35 243.34 57.9 244.52C58.32 244.85 61.72 247.45 62.15 247.77C62.71 248.2 63.16 248.76 63.47 249.39C65.04 252.61 77.63 278.37 79.2 281.58C79.5 282.19 79.65 282.84 79.67 283.51C79.69 284.74 79.85 294.53 79.87 295.76C79.9 297.71 78.69 299.47 76.85 300.13C73.08 301.48 42.89 312.3 39.11 313.65C35.32 315.01 35.03 320.27 38.65 322.04C40.1 322.75 51.7 328.44 53.15 329.15C56.51 330.79 56.57 335.55 53.26 337.29C52.77 337.54 48.83 339.6 48.34 339.86C45.93 341.12 45.16 344.19 46.67 346.44C47.95 348.35 58.22 363.64 59.5 365.55C59.95 366.21 60.55 366.75 61.27 367.1C63.47 368.19 81.12 376.89 83.33 377.98C85.28 378.95 87.65 378.39 88.97 376.66C90.73 374.34 104.87 355.81 106.64 353.49C109.33 349.97 114.95 351.96 114.82 356.39C114.81 356.82 114.71 360.25 114.7 360.68C114.68 361.34 114.8 361.99 115.05 362.59C115.93 364.66 122.91 381.22 123.79 383.29C124.14 384.11 124.23 385.03 124.07 385.91C123.68 387.95 120.57 404.3 120.18 406.35C120.03 407.16 120.1 408 120.38 408.78C120.66 409.52 122.03 413.23 124.5 419.9C215.31 419.9 265.77 419.9 275.86 419.9C324.84 370.9 357.04 305.15 363.16 231.98C358.64 230.05 336.04 220.4 295.35 203.03L107.21 203.03L107.21 203.03C99.86 211.1 95.78 215.59 94.96 216.49Z" id="aaEFwCNv3"></path></defs><g><g><g><use xlink:href="#lvcLH15tG" opacity="1" fill="#171111" fill-opacity="1"></use><g><use xlink:href="#lvcLH15tG" opacity="1" fill-opacity="0" stroke="#000000" stroke-width="1" stroke-opacity="0"></use></g></g><g><use xlink:href="#a1cW7z0xUL" opacity="1" fill="#d1d1d1" fill-opacity="1"></use><g><use xlink:href="#a1cW7z0xUL" opacity="1" fill-opacity="0" stroke="#000000" stroke-width="1" stroke-opacity="0"></use></g></g><g><use xlink:href="#a2m8x9FXfM" opacity="1" fill="#d1d1d1" fill-opacity="1"></use><g><use xlink:href="#a2m8x9FXfM" opacity="1" fill-opacity="0" stroke="#000000" stroke-width="1" stroke-opacity="0"></use></g></g><g><use xlink:href="#a1lWzFhTS4" opacity="1" fill="#171111" fill-opacity="1"></use></g><g><use xlink:href="#b3IeMm17OJ" opacity="1" fill="#d1d1d1" fill-opacity="1"></use><g><use xlink:href="#b3IeMm17OJ" opacity="1" fill-opacity="0" stroke="#000000" stroke-width="1" stroke-opacity="0"></use></g></g><g><use xlink:href="#aaEFwCNv3" opacity="1" fill="#171111" fill-opacity="1"></use><g><use xlink:href="#aaEFwCNv3" opacity="1" fill-opacity="0" stroke="#2a1919" stroke-width="1" stroke-opacity="0"></use></g></g></g></g></svg>